<?xml version="1.0" standalone="no"?>
<!DOCTYPE svg PUBLIC "-//W3C//DTD SVG 20010904//EN"
 "http://www.w3.org/TR/2001/REC-SVG-20010904/DTD/svg10.dtd">
<svg version="1.0" xmlns="http://www.w3.org/2000/svg"
 width="187.000000pt" height="192.000000pt" viewBox="0 0 187.000000 192.000000"
 preserveAspectRatio="xMidYMid meet">

<g transform="translate(0.000000,192.000000) scale(0.100000,-0.100000)"
fill="#000000" stroke="none">
<path d="M875 1780 c-16 -4 -56 -8 -87 -9 -31 0 -60 -5 -63 -11 -3 -5 -19 -10
-35 -10 -16 0 -32 -4 -35 -10 -3 -5 -16 -10 -28 -10 -13 0 -32 -7 -45 -15 -12
-9 -46 -29 -77 -45 -55 -29 -138 -93 -180 -140 -79 -86 -106 -122 -136 -180
-19 -36 -37 -67 -40 -70 -3 -3 -9 -16 -12 -30 -3 -14 -11 -43 -17 -65 -7 -22
-18 -86 -26 -142 -13 -91 -13 -115 1 -210 22 -152 26 -172 36 -179 5 -3 9 -13
9 -23 0 -21 22 -71 33 -71 4 0 7 -9 7 -20 0 -11 5 -20 10 -20 6 0 10 -6 10
-13 0 -7 17 -33 37 -58 21 -25 47 -58 58 -73 26 -36 170 -151 215 -172 19 -9
47 -25 62 -35 14 -11 35 -19 46 -19 12 0 23 -4 26 -9 6 -9 35 -15 161 -33 100
-13 140 -13 240 0 126 18 155 24 161 33 3 5 14 9 24 9 37 0 226 125 295 195
34 35 106 127 124 158 12 20 30 53 41 72 11 20 20 42 20 50 0 9 4 23 9 33 22
44 52 205 52 282 0 72 -32 243 -52 282 -5 10 -9 25 -9 34 0 9 -8 28 -18 42
-10 15 -29 49 -42 77 -28 55 -215 250 -265 275 -16 8 -32 17 -35 20 -6 6 -106
54 -143 69 -15 6 -39 11 -52 11 -13 0 -26 4 -29 9 -3 4 -40 11 -83 15 -43 3
-91 8 -108 10 -16 3 -43 1 -60 -4z m207 -69 c13 -5 50 -17 82 -27 100 -29 218
-100 305 -184 37 -35 103 -117 121 -148 8 -15 17 -29 20 -32 14 -14 50 -94 50
-111 0 -11 4 -27 9 -37 25 -50 33 -105 34 -233 0 -76 -5 -151 -10 -166 -6 -15
-16 -48 -23 -73 -44 -160 -200 -355 -347 -435 -26 -15 -61 -35 -78 -45 -16
-10 -40 -19 -53 -19 -12 -1 -30 -5 -40 -10 -9 -5 -33 -14 -53 -20 -44 -14
-325 -15 -334 -1 -3 6 -19 10 -35 10 -16 0 -32 5 -35 10 -3 6 -16 10 -29 10
-24 0 -52 13 -121 56 -22 13 -46 27 -54 31 -25 11 -136 115 -171 159 -69 86
-130 193 -130 225 0 10 -4 27 -9 37 -5 9 -14 33 -20 53 -14 45 -15 335 -1 344
5 3 10 19 10 35 0 16 4 32 10 35 5 3 10 19 10 36 0 16 5 29 10 29 6 0 10 6 10
14 0 20 58 113 113 180 51 63 183 176 204 176 7 0 13 5 13 10 0 6 9 10 20 10
11 0 20 3 20 8 0 9 41 27 110 48 30 9 64 20 75 24 27 12 289 12 317 1z"/>
<path d="M612 1207 c-22 -23 -22 -29 -22 -313 l0 -291 23 -21 c23 -22 29 -22
313 -22 l291 0 21 23 c22 23 22 29 22 315 0 279 -1 293 -20 312 -19 19 -33 20
-313 20 l-294 0 -21 -23z m618 -16 c13 -25 13 -570 0 -591 -8 -13 -53 -15
-304 -15 -162 0 -298 4 -303 8 -13 13 -16 573 -3 597 10 19 20 20 305 20 281
0 295 -1 305 -19z"/>
<path d="M755 1065 c22 -8 48 -14 58 -14 30 -2 117 -50 161 -92 52 -47 98
-132 117 -214 11 -50 14 -55 17 -30 8 66 -42 177 -114 249 -70 70 -171 117
-245 115 l-34 -1 40 -13z"/>
<path d="M720 932 c0 -4 21 -14 47 -22 26 -7 56 -22 67 -32 11 -10 25 -18 32
-18 21 0 84 -112 84 -150 0 -11 5 -20 10 -20 17 0 1 69 -26 116 -39 68 -100
111 -181 127 -18 4 -33 3 -33 -1z"/>
<path d="M732 768 c-28 -28 -7 -78 33 -78 12 0 26 5 33 12 7 7 12 21 12 33 0
12 -5 26 -12 33 -7 7 -21 12 -33 12 -12 0 -26 -5 -33 -12z m52 -49 c-13 -14
-21 -16 -35 -8 -23 12 -24 17 -2 41 15 17 17 17 35 1 17 -15 17 -18 2 -34z"/>
</g>
</svg>
